<?xml version="1.0" encoding="utf-8"?>
<!-- Generator: Adobe Illustrator 14.0.0, SVG Export Plug-In . SVG Version: 6.00 Build 43363)  -->
<!DOCTYPE svg PUBLIC "-//W3C//DTD SVG 1.1//EN" "http://www.w3.org/Graphics/SVG/1.1/DTD/svg11.dtd">
<svg version="1.1" id="Layer_1" xmlns="http://www.w3.org/2000/svg" xmlns:xlink="http://www.w3.org/1999/xlink" x="0px" y="0px"
	 width="132.636px" height="42.571px" viewBox="0 0 132.636 42.571" enable-background="new 0 0 132.636 42.571"
	 xml:space="preserve">
<path fill="#FFFFFF" d="M13.458,18.487c0.248-0.897,0.51-1.616,0.789-2.158c0.279-0.541,0.596-0.92,0.952-1.137
	c0.355-0.216,0.766-0.325,1.23-0.325c0.494,0,0.874,0.109,1.137,0.325c0.263,0.217,0.425,0.596,0.487,1.137
	c0.062,0.542,0.03,1.261-0.093,2.158c-0.124,0.897-0.325,2.011-0.604,3.341c-0.278,1.362-0.542,2.491-0.789,3.387
	c-0.248,0.898-0.518,1.617-0.812,2.158c-0.295,0.541-0.619,0.921-0.975,1.137c-0.356,0.217-0.782,0.325-1.276,0.325
	c-0.464,0-0.828-0.108-1.091-0.325c-0.263-0.216-0.417-0.596-0.464-1.137c-0.046-0.541-0.008-1.26,0.116-2.158
	c0.123-0.896,0.325-2.025,0.604-3.387C12.947,20.499,13.21,19.385,13.458,18.487z M0,42.571h8.353l2.274-10.998h0.093
	c0.154,1.3,0.657,2.205,1.508,2.715c0.851,0.511,1.864,0.766,3.04,0.766c1.144,0,2.234-0.209,3.271-0.626
	c1.036-0.418,1.995-1.121,2.877-2.112c0.882-0.989,1.671-2.289,2.367-3.897s1.292-3.62,1.787-6.032
	c0.99-4.641,1.16-8.09,0.511-10.349c-0.65-2.258-2.367-3.388-5.151-3.388c-2.847,0-5.027,1.362-6.543,4.083h-0.093l0.696-3.434
	H6.915L0,42.571z"/>
<path fill="#FFFFFF" d="M26.961,28.232c-0.278,1.362-0.341,2.476-0.186,3.341c0.154,0.867,0.479,1.562,0.975,2.088
	c0.494,0.527,1.113,0.89,1.856,1.092c0.742,0.2,1.577,0.301,2.506,0.301c2.907,0,5.181-1.236,6.821-3.713h0.093l-0.604,3.063h8.075
	l5.198-25.105h-8.354l-3.434,16.567c-0.248,1.052-0.573,1.81-0.975,2.273c-0.402,0.464-0.975,0.696-1.717,0.696
	c-0.743,0-1.223-0.232-1.438-0.696c-0.217-0.464-0.202-1.222,0.046-2.273l3.434-16.567h-8.353L26.961,28.232z"/>
<path fill="#FFFFFF" d="M49.978,34.404h8.353l6.868-33.133h-8.353L49.978,34.404z"/>
<path fill="#FFFFFF" d="M62.507,26.608c-0.557,2.754-0.217,4.85,1.021,6.287c1.237,1.439,3.604,2.158,7.101,2.158
	c1.578,0,3.031-0.209,4.361-0.626c1.33-0.418,2.506-0.998,3.527-1.74c1.021-0.743,1.863-1.632,2.529-2.669
	c0.664-1.035,1.121-2.157,1.369-3.364c0.34-1.608,0.316-2.892-0.07-3.852c-0.387-0.958-0.967-1.732-1.74-2.32
	c-0.773-0.587-1.647-1.036-2.621-1.346c-0.975-0.309-1.888-0.603-2.738-0.881c-0.852-0.279-1.539-0.604-2.065-0.975
	s-0.728-0.897-0.603-1.578c0.154-0.619,0.464-1.098,0.928-1.438c0.464-0.34,1.005-0.511,1.624-0.511c0.712,0,1.222,0.193,1.531,0.58
	c0.31,0.387,0.355,1.122,0.14,2.204h7.239c1.082-5.259-1.517-7.889-7.796-7.889c-1.671,0-3.18,0.201-4.525,0.603
	c-1.346,0.403-2.506,0.959-3.48,1.671c-0.974,0.712-1.763,1.54-2.366,2.482c-0.604,0.944-1.014,1.972-1.229,3.086
	c-0.341,1.577-0.318,2.854,0.069,3.828c0.387,0.975,0.967,1.756,1.74,2.344c0.773,0.588,1.655,1.052,2.646,1.392
	c0.989,0.341,1.902,0.666,2.737,0.975c0.835,0.31,1.509,0.666,2.019,1.067c0.511,0.402,0.688,0.975,0.534,1.717
	c-0.155,0.681-0.511,1.207-1.067,1.578s-1.16,0.557-1.811,0.557c-0.742,0-1.269-0.294-1.577-0.882
	c-0.155-0.309-0.232-0.664-0.232-1.066s0.047-0.866,0.14-1.393H62.507z"/>
<path fill="#FFFFFF" d="M98.749,18.719h-4.594l0.232-1.114c0.277-1.33,0.641-2.304,1.09-2.923c0.448-0.619,1.105-0.928,1.973-0.928
	c0.896,0,1.445,0.31,1.646,0.928c0.201,0.619,0.163,1.594-0.115,2.923L98.749,18.719z M105.571,23.267l0.557-2.552
	c0.463-2.258,0.649-4.161,0.557-5.708c-0.094-1.546-0.465-2.792-1.113-3.735c-0.65-0.943-1.562-1.616-2.738-2.019
	c-1.176-0.402-2.6-0.603-4.27-0.603c-1.887,0-3.55,0.24-4.988,0.719c-1.439,0.48-2.708,1.246-3.806,2.297
	c-1.099,1.052-2.019,2.413-2.761,4.084c-0.742,1.67-1.362,3.712-1.856,6.125c-0.248,1.176-0.434,2.273-0.557,3.294
	c-0.124,1.021-0.186,1.949-0.186,2.785c0,2.537,0.696,4.354,2.088,5.453c1.392,1.098,3.589,1.646,6.589,1.646
	c3.465,0,6.126-0.804,7.982-2.413c1.856-1.608,3.125-3.96,3.805-7.054h-7.518c-0.186,0.867-0.387,1.578-0.604,2.135
	s-0.463,0.998-0.742,1.322c-0.277,0.325-0.58,0.558-0.904,0.697c-0.325,0.139-0.673,0.208-1.045,0.208
	c-0.277,0-0.541-0.046-0.788-0.14c-0.248-0.092-0.449-0.27-0.604-0.533c-0.155-0.262-0.255-0.61-0.302-1.044
	c-0.047-0.433,0.008-0.989,0.162-1.671l0.65-3.295H105.571z"/>
<path fill="#FFFFFF" d="M112.52,11.696h1.114V6.127h5.602v-0.95h-5.602V0.95h6.307V0h-7.421V11.696z"/>
<path fill="#FFFFFF" d="M121.284,11.696h1.113V1.589h0.033l4.014,10.107h1.048l3.997-10.107h0.033v10.107h1.113V0h-1.639
	l-4.029,10.255L122.922,0h-1.638V11.696z"/>
</svg>
